# Blender v2.79 (sub 0) OBJ File: ''
# www.blender.org
o Cube.002
v 16.242901 188.688858 318.042633
v 1.465600 182.879639 408.116608
v 1.725000 171.984238 407.456512
v 16.502300 177.793549 317.382538
v -411.230804 172.541229 416.585815
v -410.971405 161.645844 415.925720
v -429.589691 177.524551 327.123230
v -429.330292 166.629150 326.463043
v -437.404388 202.787216 -91.655167
v -427.470123 208.598434 -183.664673
v -427.207092 197.552536 -184.333862
v -437.141510 191.741318 -92.324471
v -14.745900 218.938828 -192.155563
v -14.483001 207.892929 -192.824875
v -1.646500 213.697922 -100.508667
v -1.383600 202.652023 -101.177971
vt 0.745502 0.344724
vt 0.198211 0.278696
vt 0.198211 0.344724
vt 0.853459 0.679677
vt 0.142926 0.661807
vt 0.142926 0.679677
vt 0.745502 0.344724
vt 0.198211 0.278696
vt 0.745502 0.278696
vt 0.853459 0.679677
vt 0.142926 0.661807
vt 0.853459 0.661807
vt 0.216936 0.884696
vt 0.688018 0.796840
vt 0.216936 0.796840
vt 0.831606 0.398608
vt 0.164779 0.517215
vt 0.164779 0.398608
vt 0.745502 0.344724
vt 0.198211 0.278696
vt 0.198211 0.344724
vt 0.853459 0.679677
vt 0.142926 0.661807
vt 0.142926 0.679677
vt 0.745502 0.344724
vt 0.198211 0.278696
vt 0.745502 0.278696
vt 0.853459 0.679677
vt 0.142926 0.661807
vt 0.853459 0.661807
vt 0.216936 0.884696
vt 0.688018 0.796840
vt 0.216936 0.796840
vt 0.831606 0.398608
vt 0.164779 0.517215
vt 0.164779 0.398608
vt 0.745502 0.278696
vt 0.853459 0.661807
vt 0.198211 0.344724
vt 0.142926 0.679677
vt 0.688018 0.884696
vt 0.831606 0.517215
vt 0.745502 0.278696
vt 0.853459 0.661807
vt 0.198211 0.344724
vt 0.142926 0.679677
vt 0.688018 0.884696
vt 0.831606 0.517215
vn 0.9866 0.0136 0.1627
vn 0.0220 -0.0599 0.9980
vn -0.9794 -0.0354 0.1990
vn -0.0218 0.0599 -0.9980
vn 0.0238 -0.9979 -0.0605
vn -0.0238 0.9979 0.0605
vn -0.9940 -0.0171 -0.1084
vn -0.0220 0.0599 -0.9980
vn 0.9897 0.0320 -0.1396
vn 0.0218 -0.0600 0.9980
s off
f 2/1/1 4/2/1 1/3/1
f 5/4/2 3/5/2 2/6/2
f 5/7/3 8/8/3 6/9/3
f 7/10/4 4/11/4 8/12/4
f 3/13/5 8/14/5 4/15/5
f 7/16/6 2/17/6 1/18/6
f 10/19/7 12/20/7 9/21/7
f 13/22/8 11/23/8 10/24/8
f 13/25/9 16/26/9 14/27/9
f 15/28/10 12/29/10 16/30/10
f 11/31/5 16/32/5 12/33/5
f 15/34/6 10/35/6 9/36/6
f 2/1/1 3/37/1 4/2/1
f 5/4/2 6/38/2 3/5/2
f 5/7/3 7/39/3 8/8/3
f 7/10/4 1/40/4 4/11/4
f 3/13/5 6/41/5 8/14/5
f 7/16/6 5/42/6 2/17/6
f 10/19/7 11/43/7 12/20/7
f 13/22/8 14/44/8 11/23/8
f 13/25/9 15/45/9 16/26/9
f 15/28/10 9/46/10 12/29/10
f 11/31/5 14/47/5 16/32/5
f 15/34/6 13/48/6 10/35/6
o Cube.001
v -214.965012 -16.710669 -196.274399
v -398.424103 43.386333 -188.638397
v -339.351715 62.246166 -394.430603
v -222.523407 69.028175 -460.979980
v -194.459198 4.366264 832.684631
v -197.089310 202.375549 946.630615
v -212.593384 201.809158 946.936401
v -207.767197 4.032164 832.956604
v -434.727905 245.770355 -243.681961
v -365.818604 264.811493 -483.677368
v -305.180511 -7.822402 628.753784
v -197.142700 -59.398106 623.284912
v -385.665497 0.151731 425.370514
v -201.316101 -60.576466 417.677124
v -417.864990 10.860764 221.091797
v -205.760788 -50.361137 212.759689
v -422.419403 25.681198 16.453304
v -210.326691 -35.054501 8.150694
v -326.373199 198.928467 709.633484
v -419.885406 196.459717 471.910736
v -457.406616 208.850159 233.851624
v -462.709106 225.923203 -4.633263
v -228.757004 270.280090 -519.341553
v -102.881798 68.168770 -399.264404
v -34.584297 52.499126 -196.075882
v -181.151199 4.698765 832.412537
v -181.576797 202.585953 946.302368
v -90.251396 271.713409 -489.310486
v -10.731600 256.389709 -252.349167
v -91.687897 -2.475202 624.389587
v -20.076300 9.308332 417.897308
v 3.177200 21.406166 212.485001
v -1.377100 36.226700 7.846506
v -77.582001 205.159775 704.547852
v 6.149700 207.130219 463.201843
v 33.250000 221.139160 223.821838
v 27.947300 238.212112 -14.663061
v -205.078598 7.410268 812.402161
v -209.059402 203.216263 919.199646
v -197.725708 203.712738 917.136230
v -194.956802 8.009567 812.809570
v -335.007080 63.785961 -374.283295
v -360.037292 264.094971 -457.304169
v -423.998779 245.157822 -229.817245
v -390.810211 45.928032 -178.620804
v -299.740997 -5.760200 614.000732
v -318.519989 199.569397 688.304749
v -378.543488 3.759732 414.421173
v -409.988129 197.286118 456.665649
v -409.605682 14.368664 217.660599
v -445.796204 209.477371 228.883530
v -414.017578 28.732496 19.950003
v -450.904175 225.942307 0.079037
v -222.152588 70.708168 -440.782501
v -228.126007 269.172089 -489.833374
v -186.306702 203.786148 918.734497
v -184.842712 7.917068 811.988525
v -20.841301 255.255341 -238.058456
v -94.907600 270.735382 -462.723907
v -106.471504 69.509857 -378.955017
v -41.900398 54.666828 -185.753082
v -86.321999 205.384979 683.558228
v -97.821800 -0.702899 609.873169
v -4.390900 207.444733 448.374634
v -27.811102 12.544233 407.251587
v 21.429600 221.179474 219.332626
v -5.380400 24.492966 209.397598
v 16.358501 237.645294 -9.472561
v -9.771200 38.857300 11.686507
v -220.745209 66.856064 -376.651703
v -335.007080 63.785961 -374.283295
v -390.810211 45.928032 -178.620804
v -216.334793 40.827431 -192.788193
v -198.513611 -1.815302 626.773682
v -299.740997 -5.760200 614.000732
v -205.078598 7.410268 812.402161
v -194.956802 8.009567 812.809570
v -202.686493 -3.016869 421.164612
v -378.543488 3.759732 414.421173
v -207.130905 7.188265 216.246506
v -409.605682 14.368664 217.660599
v -211.696701 22.488098 11.637104
v -414.017578 28.732496 19.950003
v -41.900398 54.666828 -185.753082
v -106.471504 69.509857 -378.955017
v -184.842712 7.917068 811.988525
v -97.821800 -0.702899 609.873169
v -27.811102 12.544233 407.251587
v -5.380400 24.492966 209.397598
v -9.771200 38.857300 11.686507
vt 0.318142 0.664794
vt 0.371789 0.796539
vt 0.318142 0.838103
vt 0.527491 0.773583
vt 0.520448 0.873519
vt 0.522198 0.770579
vt 0.695109 0.761079
vt 0.609459 0.856928
vt 0.604655 0.721395
vt 0.324181 0.000000
vt 0.318143 0.133797
vt 0.318143 0.000000
vt 0.366576 0.133033
vt 0.318143 0.266713
vt 0.401081 0.265794
vt 0.318143 0.399469
vt 0.413661 0.398532
vt 0.318143 0.532153
vt 0.400684 0.663883
vt 0.607574 0.068319
vt 0.692936 0.148751
vt 0.597789 0.196084
vt 0.686767 0.298549
vt 0.597079 0.324501
vt 0.687577 0.451082
vt 0.597808 0.455391
vt 0.600518 0.587669
vt 0.690645 0.605233
vt 0.419862 0.939179
vt 0.508391 0.864930
vt 0.520448 0.924916
vt 0.264496 0.796539
vt 0.235601 0.663883
vt 0.532784 0.880518
vt 0.526598 0.877123
vt 0.706415 0.064501
vt 0.797458 0.143882
vt 0.706007 0.187936
vt 0.312105 0.000000
vt 0.269709 0.133033
vt 0.235204 0.265793
vt 0.222624 0.398532
vt 0.222624 0.531223
vt 0.705269 0.860681
vt 0.795541 0.763093
vt 0.797458 0.927881
vt 0.699374 0.719152
vt 0.792829 0.600592
vt 0.701618 0.579836
vt 0.794120 0.444625
vt 0.704423 0.315338
vt 0.702761 0.445999
vt 0.795968 0.292359
vt 0.419862 0.770579
vt 0.520448 0.780237
vt 0.533789 0.875542
vt 0.536961 0.772729
vt 0.537909 0.873169
vt 0.812386 0.054212
vt 0.894453 0.152041
vt 0.806111 0.185090
vt 0.892330 0.729257
vt 0.810619 0.800857
vt 0.798700 0.683626
vt 0.884857 0.590271
vt 0.797458 0.563669
vt 0.885519 0.448001
vt 0.798061 0.440786
vt 0.801075 0.314600
vt 0.888936 0.301973
vt 0.314969 0.909045
vt 0.227836 0.838103
vt 0.326306 0.851983
vt 0.541870 0.871026
vt 0.998307 0.754076
vt 0.910673 0.835916
vt 0.908527 0.713260
vt 0.995929 0.155531
vt 0.908919 0.062782
vt 1.000000 0.000000
vt 0.991989 0.310400
vt 0.900899 0.196177
vt 0.993229 0.459553
vt 0.902698 0.329941
vt 0.905897 0.586614
vt 0.903807 0.458792
vt 0.995576 0.607474
vt 0.227836 1.000000
vt 0.326306 0.991535
vt 0.111311 0.949628
vt 0.116473 0.931713
vt 0.118348 0.949626
vt 0.207501 0.175965
vt 0.171460 0.038435
vt 0.173828 0.021293
vt 0.167753 0.794812
vt 0.163989 0.781122
vt 0.207963 0.639997
vt 0.203327 0.630261
vt 0.222624 0.485293
vt 0.217308 0.482226
vt 0.217316 0.333830
vt 0.222624 0.330621
vt 0.202773 0.185091
vt 0.111312 0.019107
vt 0.111312 0.000000
vt 0.106150 0.931713
vt 0.111311 0.930523
vt 0.015123 0.175964
vt 0.051164 0.038435
vt 0.019850 0.185091
vt 0.054870 0.794812
vt 0.104275 0.949626
vt 0.014660 0.639997
vt 0.058634 0.781122
vt 0.000000 0.485293
vt 0.019297 0.630260
vt 0.005307 0.333829
vt 0.005316 0.482226
vt 0.000000 0.330621
vt 0.048796 0.021293
vt 0.699374 0.919057
vt 0.413661 0.531223
vt 0.699374 0.000000
vt 0.413661 0.861202
vt 0.532784 0.776586
vt 0.796603 0.000000
vt 0.532784 0.775657
vt 0.900899 0.000000
vt 0.900899 0.865967
vt 0.222624 0.913134
vt 0.541870 0.770579
vt 1.000000 0.896690
vt 0.505365 0.119539
vt 0.453514 0.000030
vt 0.505361 0.000000
vt 0.505385 0.650536
vt 0.500798 0.770191
vt 0.459576 0.640981
vt 0.505380 0.517619
vt 0.425811 0.510667
vt 0.505375 0.384864
vt 0.413671 0.382806
vt 0.505370 0.252180
vt 0.413661 0.254607
vt 0.426210 0.126162
vt 0.557207 0.000022
vt 0.584520 0.126150
vt 0.509980 0.770191
vt 0.551192 0.640974
vt 0.584948 0.510655
vt 0.597079 0.382793
vt 0.597079 0.254593
vt 0.505389 0.770579
vn -0.1177 -0.9457 -0.3030
vn 0.0302 -0.4985 0.8663
vn -0.9259 -0.2445 -0.2882
vn 0.0300 -0.9563 0.2908
vn -0.4302 -0.9026 0.0139
vn -0.3141 -0.9485 -0.0405
vn -0.2791 -0.9580 -0.0654
vn -0.3133 -0.9465 -0.0778
vn -0.8665 -0.2564 0.4283
vn -0.9057 -0.2406 0.3490
vn -0.9689 -0.2027 0.1421
vn -0.9805 -0.1963 0.0076
vn -0.9691 -0.2088 -0.1314
vn -0.4333 -0.4102 -0.8025
vn 0.3519 -0.9167 -0.1890
vn 0.0251 -0.4984 0.8666
vn 0.9244 -0.1981 -0.3260
vn 0.0298 -0.9563 0.2908
vn 0.4750 -0.8800 -0.0046
vn 0.3593 -0.9316 -0.0542
vn 0.3238 -0.9429 -0.0778
vn 0.3201 -0.9388 -0.1270
vn 0.8972 -0.2188 0.3836
vn 0.9286 -0.1869 0.3206
vn 0.9828 -0.1537 0.1023
vn 0.9886 -0.1470 -0.0326
vn 0.9721 -0.1602 -0.1711
vn 0.4202 -0.3888 -0.8199
vn 0.0077 0.4705 -0.8824
vn 0.9305 0.2286 0.2862
vn 0.8709 0.2357 -0.4312
vn 0.9101 0.2240 -0.3487
vn 0.9716 0.1885 -0.1432
vn 0.9831 0.1829 -0.0087
vn 0.9721 0.1950 0.1305
vn 0.4498 0.3894 0.8038
vn -0.0672 0.4686 -0.8808
vn -0.9283 0.1820 0.3242
vn -0.9019 0.2015 -0.3821
vn -0.9315 0.1675 -0.3230
vn -0.9848 0.1400 -0.1026
vn -0.9906 0.1334 0.0317
vn -0.9745 0.1462 0.1703
vn -0.4355 0.3672 0.8219
vn -0.0356 0.9983 0.0461
vn -0.1024 0.9935 0.0494
vn -0.0543 0.9985 0.0100
vn -0.0612 0.9980 0.0143
vn -0.0291 0.9979 0.0580
vn -0.0304 0.9969 0.0720
vn -0.0434 0.9960 0.0776
vn -0.0299 0.9988 0.0381
vn -0.0128 0.9989 0.0456
vn -0.0101 0.9974 0.0720
vn 0.0545 0.9979 0.0341
vn 0.0034 1.0000 0.0093
vn -0.0452 0.9976 0.0533
vn -0.0241 0.9971 0.0723
vn -0.0134 0.9968 0.0790
vn -0.0185 0.9993 0.0335
vn -0.3131 -0.9334 -0.1754
vn 0.0353 -0.4981 0.8664
vn -0.9261 -0.2468 -0.2855
vn -0.4075 -0.8796 0.2455
vn -0.3085 -0.9474 0.0850
vn -0.2776 -0.9607 -0.0066
vn -0.2770 -0.9588 -0.0633
vn -0.2776 -0.9538 -0.1148
vn -0.8687 -0.2631 0.4197
vn -0.9042 -0.2328 0.3581
vn -0.9689 -0.2026 0.1422
vn -0.9805 -0.1965 0.0077
vn -0.9690 -0.2094 -0.1308
vn -0.2315 -0.2776 -0.9324
vn 0.1524 -0.9389 -0.3085
vn 0.9248 -0.2004 -0.3233
vn 0.4607 -0.8579 0.2277
vn 0.3588 -0.9307 0.0713
vn 0.3248 -0.9456 -0.0189
vn 0.3218 -0.9438 -0.0755
vn 0.3568 -0.9297 -0.0915
vn 0.8950 -0.2122 0.3922
vn 0.9301 -0.1946 0.3115
vn 0.9828 -0.1538 0.1022
vn 0.9886 -0.1471 -0.0325
vn 0.9722 -0.1608 -0.1705
vn 0.2069 -0.2666 -0.9414
vn -0.1781 0.4684 -0.8654
vn 0.9310 0.2329 0.2811
vn 0.8743 0.2460 -0.4184
vn 0.9079 0.2135 -0.3606
vn 0.9716 0.1890 -0.1426
vn 0.9831 0.1830 -0.0088
vn 0.9721 0.1954 0.1301
vn 0.2237 0.2402 0.9446
vn 0.1189 0.4758 -0.8715
vn -0.9292 0.1863 0.3192
vn -0.8985 0.1914 -0.3950
vn -0.9336 0.1778 -0.3110
vn -0.9848 0.1395 -0.1032
vn -0.9905 0.1336 0.0316
vn -0.9745 0.1466 0.1699
vn -0.1967 0.2297 0.9532
vn -0.0354 0.9983 0.0460
vn -0.0369 0.9967 0.0726
vn -0.1030 0.9940 0.0373
vn -0.0530 0.9985 0.0105
vn -0.0027 0.9986 0.0524
vn -0.0229 0.9971 0.0723
vn -0.0333 0.9963 0.0794
vn -0.0301 0.9990 0.0337
vn -0.0126 0.9989 0.0456
vn 0.0545 0.9974 0.0462
vn 0.0047 1.0000 0.0088
vn 0.0118 0.9998 0.0129
vn -0.0185 0.9982 0.0578
vn -0.0166 0.9973 0.0718
vn -0.0033 0.9970 0.0768
vn -0.0186 0.9991 0.0379
vn 0.0237 -0.9898 -0.1407
vn 0.0325 -0.9982 0.0508
vn -0.0372 -0.9988 -0.0329
vn -0.0357 -0.9982 -0.0482
vn -0.0337 -0.9969 -0.0717
vn -0.0363 -0.9954 -0.0885
vn 0.0828 -0.9911 -0.1038
vn 0.0196 -0.9985 0.0510
vn 0.0858 -0.9957 -0.0355
vn 0.0836 -0.9952 -0.0506
vn 0.0806 -0.9940 -0.0740
vn 0.0805 -0.9924 -0.0926
vn -0.0373 -0.9941 -0.1014
vn 0.0570 -0.9970 0.0516
vn 0.0383 -0.9993 0.0051
vn -0.0366 -0.9981 -0.0489
vn -0.0359 -0.9966 -0.0737
vn -0.0344 -0.9953 -0.0902
vn 0.0202 -0.9899 -0.1406
vn -0.0048 -0.9986 0.0528
vn 0.0120 -0.9999 0.0056
vn 0.0845 -0.9951 -0.0514
vn 0.0826 -0.9937 -0.0761
vn 0.0824 -0.9924 -0.0909
s off
f 17/49/11 19/50/11 20/51/11
f 21/52/12 23/53/12 24/54/12
f 25/55/13 19/56/13 18/57/13
f 24/58/14 28/59/14 21/60/14
f 27/61/15 30/62/15 28/59/15
f 29/63/16 32/64/16 30/62/16
f 31/65/17 34/66/17 32/64/17
f 34/66/18 18/67/18 17/49/18
f 24/68/19 35/69/19 27/70/19
f 27/70/20 36/71/20 29/72/20
f 29/72/21 37/73/21 31/74/21
f 37/73/22 33/75/22 31/74/22
f 38/76/23 18/57/23 33/75/23
f 26/77/24 20/78/24 19/79/24
f 17/49/25 40/80/25 41/81/25
f 21/52/26 43/82/26 22/83/26
f 40/84/27 45/85/27 41/86/27
f 28/59/28 42/87/28 21/60/28
f 30/62/29 46/88/29 28/59/29
f 32/64/30 47/89/30 30/62/30
f 34/66/31 48/90/31 32/64/31
f 34/66/32 41/81/32 49/91/32
f 42/92/33 50/93/33 43/94/33
f 46/95/34 51/96/34 50/93/34
f 47/97/35 52/98/35 51/96/35
f 49/99/36 52/98/36 48/100/36
f 41/86/37 53/101/37 49/99/37
f 20/78/38 44/102/38 40/103/38
f 54/104/39 56/105/39 57/106/39
f 58/107/40 60/108/40 61/109/40
f 63/110/41 54/111/41 62/112/41
f 65/113/42 62/112/42 64/114/42
f 67/115/43 64/114/43 66/116/43
f 68/117/44 67/115/44 66/116/44
f 61/109/45 69/118/45 68/117/45
f 70/119/46 59/120/46 58/121/46
f 56/105/47 73/122/47 57/106/47
f 74/123/48 76/124/48 77/125/48
f 78/126/49 73/127/49 72/128/49
f 80/129/50 79/130/50 78/126/50
f 82/131/51 81/132/51 80/129/51
f 82/131/52 85/133/52 83/134/52
f 84/135/53 77/125/53 85/133/53
f 75/136/54 70/119/54 76/137/54
f 22/138/55 55/139/55 23/140/55
f 25/141/56 59/142/56 26/143/56
f 35/144/57 55/139/57 63/145/57
f 36/146/58 63/145/58 65/147/58
f 37/148/59 65/147/59 67/149/59
f 37/148/60 69/150/60 38/151/60
f 38/151/61 60/152/61 25/141/61
f 26/143/62 71/153/62 39/154/62
f 22/138/63 72/155/63 56/156/63
f 45/157/64 75/158/64 74/159/64
f 50/160/65 72/155/65 43/161/65
f 51/162/66 78/163/66 50/160/66
f 52/164/67 80/165/67 51/162/67
f 52/164/68 84/166/68 82/167/68
f 53/168/69 74/159/69 84/166/69
f 44/169/70 71/153/70 75/158/70
f 17/49/71 18/67/71 19/50/71
f 21/52/72 22/83/72 23/53/72
f 25/55/73 26/170/73 19/56/73
f 24/58/74 27/61/74 28/59/74
f 27/61/75 29/63/75 30/62/75
f 29/63/76 31/65/76 32/64/76
f 31/65/77 33/171/77 34/66/77
f 34/66/78 33/171/78 18/67/78
f 24/68/79 23/172/79 35/69/79
f 27/70/80 35/69/80 36/71/80
f 29/72/81 36/71/81 37/73/81
f 37/73/82 38/76/82 33/75/82
f 38/76/83 25/55/83 18/57/83
f 26/77/84 39/173/84 20/78/84
f 17/49/85 20/51/85 40/80/85
f 21/52/12 42/174/12 43/82/12
f 40/84/86 44/175/86 45/85/86
f 28/59/87 46/88/87 42/87/87
f 30/62/88 47/89/88 46/88/88
f 32/64/89 48/90/89 47/89/89
f 34/66/90 49/91/90 48/90/90
f 34/66/91 17/49/91 41/81/91
f 42/92/92 46/95/92 50/93/92
f 46/95/93 47/97/93 51/96/93
f 47/97/94 48/100/94 52/98/94
f 49/99/95 53/101/95 52/98/95
f 41/86/96 45/85/96 53/101/96
f 20/78/97 39/173/97 44/102/97
f 54/104/98 55/176/98 56/105/98
f 58/107/99 59/177/99 60/108/99
f 63/110/100 55/178/100 54/111/100
f 65/113/101 63/110/101 62/112/101
f 67/115/102 65/113/102 64/114/102
f 68/117/103 69/118/103 67/115/103
f 61/109/104 60/108/104 69/118/104
f 70/119/105 71/179/105 59/120/105
f 56/105/106 72/180/106 73/122/106
f 74/123/107 75/181/107 76/124/107
f 78/126/108 79/130/108 73/127/108
f 80/129/109 81/132/109 79/130/109
f 82/131/110 83/134/110 81/132/110
f 82/131/111 84/135/111 85/133/111
f 84/135/112 74/123/112 77/125/112
f 75/136/113 71/179/113 70/119/113
f 22/138/114 56/156/114 55/139/114
f 25/141/115 60/152/115 59/142/115
f 35/144/116 23/140/116 55/139/116
f 36/146/117 35/144/117 63/145/117
f 37/148/118 36/146/118 65/147/118
f 37/148/119 67/149/119 69/150/119
f 38/151/120 69/150/120 60/152/120
f 26/143/121 59/142/121 71/153/121
f 22/138/122 43/161/122 72/155/122
f 45/157/123 44/169/123 75/158/123
f 50/160/124 78/163/124 72/155/124
f 51/162/125 80/165/125 78/163/125
f 52/164/126 82/167/126 80/165/126
f 52/164/127 53/168/127 84/166/127
f 53/168/128 45/157/128 74/159/128
f 44/169/129 39/154/129 71/153/129
f 89/182/130 87/183/130 86/184/130
f 90/185/131 92/186/131 91/187/131
f 94/188/132 91/187/132 95/189/132
f 96/190/133 95/189/133 97/191/133
f 98/192/134 97/191/134 99/193/134
f 98/192/135 88/194/135 89/182/135
f 89/182/136 101/195/136 100/196/136
f 102/197/137 90/185/137 103/198/137
f 103/198/138 94/188/138 104/199/138
f 104/199/139 96/190/139 105/200/139
f 105/200/140 98/192/140 106/201/140
f 98/192/141 100/196/141 106/201/141
f 89/182/142 88/194/142 87/183/142
f 90/185/143 93/202/143 92/186/143
f 94/188/144 90/185/144 91/187/144
f 96/190/145 94/188/145 95/189/145
f 98/192/146 96/190/146 97/191/146
f 98/192/147 99/193/147 88/194/147
f 89/182/148 86/184/148 101/195/148
f 102/197/149 93/202/149 90/185/149
f 103/198/150 90/185/150 94/188/150
f 104/199/151 94/188/151 96/190/151
f 105/200/152 96/190/152 98/192/152
f 98/192/153 89/182/153 100/196/153
